<svg width="24" height="24" viewBox="0 0 24 24" fill="none" xmlns="http://www.w3.org/2000/svg">
<path fill-rule="evenodd" clip-rule="evenodd" d="M6.47994 2.19993C3.53894 2.54393 1.85494 4.83893 2.20194 8.03193C2.32494 9.16193 2.77794 10.6799 3.30794 11.7359L3.44694 12.0109L3.26594 12.3959C1.98794 15.1129 1.81194 17.7809 2.79494 19.5159C3.89294 21.4539 6.06194 22.2459 8.81994 21.7179C9.65294 21.5579 10.6929 21.2139 11.5879 20.8029L12.0349 20.5969L12.2799 20.7199C13.1829 21.1759 14.5269 21.6099 15.5799 21.7859C16.1889 21.8879 17.4679 21.8879 17.9789 21.7859C20.0439 21.3729 21.3799 20.0429 21.7799 17.9999C21.8709 17.5359 21.9019 16.5609 21.8429 16.0399C21.7099 14.8629 21.3369 13.5919 20.7739 12.3959L20.5929 12.0109L20.7119 11.7749C21.2019 10.8049 21.6469 9.40893 21.8059 8.33993C21.8769 7.86893 21.8769 6.55393 21.8059 6.15993C21.5909 4.95593 21.0949 4.04193 20.2669 3.32593C19.6479 2.79093 18.9519 2.46293 18.0399 2.27593C17.4479 2.15493 16.3559 2.14493 15.6399 2.25493C14.6469 2.40793 13.4279 2.78493 12.4479 3.24393L12.0249 3.44193L11.5029 3.20493C10.4779 2.73993 9.39394 2.40693 8.42794 2.26093C7.92694 2.18493 6.88494 2.15193 6.47994 2.19993ZM7.96794 4.21993C8.48194 4.28693 9.06494 4.42393 9.55394 4.58993L9.88894 4.70393L9.33394 5.11893C8.34194 5.86293 7.28994 6.80893 6.48894 7.67993C5.98794 8.22393 5.84094 8.46993 5.84094 8.75993C5.84094 9.27593 6.56294 9.87593 7.04794 9.76393C7.29394 9.70693 7.43594 9.59093 8.03994 8.95593C9.20394 7.73093 10.5369 6.62593 11.7089 5.91293L12.0159 5.72593L12.1979 5.83093C13.4859 6.57193 15.2039 8.03193 16.4059 9.40593C17.2999 10.4279 18.3619 11.9429 18.4539 12.3269C18.4679 12.3859 18.5229 12.4849 18.5749 12.5469C18.8599 12.8869 19.4359 14.2929 19.6579 15.1929C19.8199 15.8489 19.8589 16.1569 19.8579 16.7999C19.8579 17.5709 19.7899 17.9189 19.5339 18.4399C19.2009 19.1209 18.6529 19.5529 17.8579 19.7629C16.9889 19.9919 15.6709 19.8689 14.4699 19.4459L14.1589 19.3359L14.6889 18.9379C15.5379 18.2989 16.2059 17.7149 17.0399 16.8799C17.9619 15.9579 18.1279 15.7379 18.1509 15.4089C18.1709 15.1119 18.0909 14.9239 17.8389 14.6789C17.4939 14.3429 17.1179 14.2359 16.7759 14.3789C16.6889 14.4149 16.2979 14.7789 15.7479 15.3339C14.4599 16.6339 13.4399 17.4639 12.2489 18.1819L12.0229 18.3179L11.8419 18.2119C10.5249 17.4469 8.83694 16.0109 7.63294 14.6339C6.72294 13.5909 5.71994 12.1579 5.56294 11.6729C5.53694 11.5919 5.48794 11.5029 5.45394 11.4749C5.30394 11.3509 4.81694 10.2519 4.56194 9.46293C3.92094 7.48193 4.06394 5.85393 4.95894 4.95893C5.61794 4.29993 6.65194 4.04593 7.96794 4.21993ZM17.8349 4.27993C18.6169 4.46993 19.2009 4.92493 19.5359 5.60393C19.7959 6.13093 19.8559 6.43593 19.8549 7.23993C19.8549 7.74793 19.8349 8.00793 19.7679 8.36693C19.6889 8.78893 19.4389 9.69793 19.3649 9.82893C19.3459 9.86393 19.2049 9.70793 18.9379 9.35193C17.7399 7.75893 16.2819 6.30093 14.7059 5.11893L14.1509 4.70393L14.4859 4.58993C14.9339 4.43693 15.5689 4.28493 16.0359 4.21793C16.5549 4.14293 17.3929 4.17193 17.8349 4.27993ZM11.4769 10.0729C10.8059 10.2489 10.2379 10.8229 10.0599 11.5079C9.94094 11.9619 10.0029 12.4919 10.2249 12.9299C10.3609 13.1989 10.8009 13.6389 11.0699 13.7749C11.6589 14.0729 12.3409 14.0729 12.9299 13.7749C13.1959 13.6399 13.6379 13.1999 13.7709 12.9369C13.9939 12.4979 14.0519 12.0069 13.9399 11.5289C13.8579 11.1819 13.7199 10.9269 13.4649 10.6529C13.0739 10.2319 12.5599 10.0049 11.9999 10.0049C11.8569 10.0049 11.6219 10.0359 11.4769 10.0729ZM5.14294 14.7399C6.32594 16.3079 7.76894 17.7469 9.35194 18.9379L9.88094 19.3359L9.63094 19.4279C8.80194 19.7339 7.82694 19.8999 7.03994 19.8679C6.09594 19.8309 5.47894 19.6009 4.97894 19.1009C4.20494 18.3269 3.98194 17.0809 4.32194 15.4389C4.42994 14.9199 4.67594 14.1399 4.71794 14.1849C4.73594 14.2039 4.92694 14.4539 5.14294 14.7399Z" fill="#FF0000"/>
</svg>
