<svg width="16" height="16" viewBox="0 0 16 16" fill="none" xmlns="http://www.w3.org/2000/svg">
<g clip-path="url(#clip0_6094_28714)">
<path fill-rule="evenodd" clip-rule="evenodd" d="M7.66673 0.768651C7.43339 0.856651 0.973392 4.09865 0.886725 4.17198C0.774725 4.26598 0.666725 4.49332 0.648058 4.67465C0.628725 4.86465 0.706058 5.03665 0.863392 5.15198C0.924058 5.19598 2.48539 5.98732 4.33339 6.91065C7.94806 8.71598 7.84473 8.66998 8.15339 8.61598C8.27273 8.59465 9.05472 8.21532 11.6674 6.91065C13.5161 5.98798 15.0667 5.20065 15.1127 5.16198C15.2254 5.06732 15.3334 4.84065 15.3521 4.65865C15.3714 4.46865 15.2941 4.29665 15.1367 4.18132C15.0761 4.13732 13.5127 3.34398 11.6621 2.41865L8.29673 0.735985L8.04873 0.727318C7.85473 0.720651 7.77073 0.729985 7.66673 0.768651ZM10.5734 3.36665C11.9887 4.07398 13.1467 4.65932 13.1467 4.66665C13.1467 4.67398 11.9887 5.25932 10.5734 5.96665L8.00006 7.25332L5.42673 5.96665C4.01139 5.25932 2.85339 4.67398 2.85339 4.66665C2.85339 4.65665 7.95739 2.08932 7.99339 2.08132C7.99673 2.08065 9.15806 2.65865 10.5734 3.36665ZM1.04673 7.36132C0.842059 7.46532 0.676725 7.73532 0.648058 8.01065C0.628725 8.19798 0.707392 8.37065 0.863392 8.48532C0.924058 8.52932 2.48539 9.32065 4.33339 10.244C6.94673 11.5493 7.72739 11.928 7.84673 11.9493C8.15539 12.0033 8.05206 12.0493 11.6667 10.244C13.5147 9.32065 15.0761 8.52932 15.1367 8.48532C15.3807 8.30665 15.4201 8.01865 15.2481 7.68132C15.1027 7.39665 14.8974 7.27798 14.6227 7.31932C14.5354 7.33198 13.5254 7.82398 11.2494 8.96198L8.00006 10.5867L4.74006 8.95732C1.72939 7.45265 1.46806 7.32732 1.32006 7.31598C1.19139 7.30598 1.13739 7.31465 1.04673 7.36132ZM1.04673 10.6947C0.842059 10.7987 0.676725 11.0687 0.648058 11.344C0.628725 11.5313 0.707392 11.704 0.863392 11.8187C0.924058 11.8627 2.48539 12.654 4.33339 13.5773C6.94673 14.8827 7.72739 15.2613 7.84673 15.2826C8.15539 15.3367 8.05206 15.3827 11.6667 13.5773C13.5147 12.654 15.0761 11.8627 15.1367 11.8187C15.3807 11.64 15.4201 11.352 15.2481 11.0147C15.1027 10.73 14.8974 10.6113 14.6227 10.6527C14.5354 10.6653 13.5254 11.1573 11.2494 12.2953L8.00006 13.92L4.74006 12.2907C1.72939 10.786 1.46806 10.6607 1.32006 10.6493C1.19139 10.6393 1.13739 10.648 1.04673 10.6947Z" fill="#FAF9F6"/>
</g>
<defs>
<clipPath id="clip0_6094_28714">
<rect width="16" height="16" fill="white"/>
</clipPath>
</defs>
</svg>
